<svg width="120" height="51" viewBox="0 0 120 51" fill="none" xmlns="http://www.w3.org/2000/svg">
<g clip-path="url(#clip0_56_946)">
<mask id="mask0_56_946" style="mask-type:luminance" maskUnits="userSpaceOnUse" x="0" y="1" width="119" height="49">
<path d="M118.844 1.53125H0.843765V49.4688H118.844V1.53125Z" fill="white"/>
</mask>
<g mask="url(#mask0_56_946)">
<path d="M110.018 35.1081C109.702 35.1081 109.485 34.8918 109.485 34.5807V19.126H104.174C103.858 19.126 103.64 18.9106 103.64 18.5992V16.4673C103.64 16.1551 103.858 15.9391 104.174 15.9391H118.311C118.626 15.9391 118.844 16.1553 118.844 16.4673V18.599C118.844 18.9103 118.626 19.126 118.311 19.126H113V34.5804C113 34.8918 112.782 35.1081 112.467 35.1081H110.018ZM69.3344 27.3923L66.5464 19.4859L63.7335 27.3923H69.3344ZM75.5179 34.4837C75.6397 34.7959 75.4452 35.1081 75.1057 35.1081H72.5845C72.2205 35.1081 72.0019 34.9409 71.8804 34.6039L70.4504 30.5319H62.6189L61.1864 34.6039C61.0661 34.9411 60.847 35.1081 60.484 35.1081H58.1084C57.7928 35.1081 57.5741 34.7958 57.6956 34.4837L64.2667 16.4194C64.3882 16.0828 64.6064 15.94 64.9694 15.94H68.2187C68.5828 15.94 68.8253 16.0829 68.9465 16.4194L75.5179 34.4837ZM94.3531 32.5198C95.9043 32.5198 96.9475 31.7783 97.7964 30.5078L93.8689 26.3382C92.3648 27.1775 91.3944 28.0149 91.3944 29.6926C91.3946 31.3462 92.7519 32.5198 94.3531 32.5198ZM95.4441 18.479C94.1836 18.479 93.4562 19.2704 93.4562 20.3244C93.4562 21.139 93.8918 21.8579 94.8863 22.9124C96.6078 21.9293 97.3357 21.3307 97.3357 20.2767C97.3357 19.2935 96.7055 18.479 95.4441 18.479ZM106.187 34.4371C106.502 34.7729 106.308 35.1081 105.919 35.1081H102.84C102.428 35.1081 102.209 35.0117 101.943 34.7L100.1 32.6881C98.8635 34.3176 97.1405 35.5393 94.2799 35.5393C90.7399 35.5393 87.9505 33.4309 87.9505 29.8135C87.9505 27.0332 89.4548 25.5473 91.7344 24.3016C90.618 23.0319 90.1098 21.69 90.1098 20.5165C90.1098 17.5445 92.2193 15.5083 95.3952 15.5083C98.6445 15.5083 100.633 17.4018 100.633 20.2047C100.633 22.6007 98.8878 23.9414 97.0443 24.9484L99.7605 27.8485L101.288 25.212C101.482 24.901 101.7 24.7806 102.087 24.7806H104.439C104.828 24.7806 105.046 25.0449 104.804 25.452L102.088 30.0518L106.187 34.4371ZM81.9879 35.1081C82.3031 35.1081 82.5224 34.8918 82.5224 34.5807V19.126H87.832C88.1472 19.126 88.3652 18.9106 88.3652 18.5992V16.4673C88.3652 16.1551 88.1472 15.9391 87.832 15.9391H73.6949C73.3791 15.9391 73.1614 16.1553 73.1614 16.4673V18.599C73.1614 18.9103 73.3792 19.126 73.6949 19.126H79.0044V34.5804C79.0044 34.8918 79.2233 35.1081 79.5382 35.1081H81.9879Z" fill="#6A6F73"/>
<path d="M10.2255 44.4287C14.3377 47.5755 19.4993 49.466 25.0994 49.466C31.2278 49.466 36.8147 47.2169 41.0786 43.525C41.1302 43.4799 41.1047 43.45 41.0537 43.4799C39.1404 44.743 33.6872 47.5004 25.0996 47.5004C17.6368 47.5004 12.9205 45.8543 10.2571 44.3848C10.2061 44.36 10.1872 44.3977 10.2255 44.4287ZM26.7459 45.6539C32.715 45.6539 39.274 44.0454 43.197 40.8615C44.2706 39.994 45.2931 38.8394 46.2089 37.2877C46.7361 36.395 47.2517 35.3342 47.6717 34.2916C47.6904 34.2407 47.6585 34.216 47.6199 34.2732C43.9718 39.58 33.4078 42.8901 22.5 42.8901C14.7899 42.8901 6.494 40.4529 3.24609 35.7992C3.21411 35.7562 3.18214 35.7746 3.2016 35.824C6.22727 42.1811 15.4064 45.6539 26.7459 45.6539ZM20.2243 35.1078C7.80993 35.1078 1.95633 29.3923 0.894492 25.492C0.881397 25.4355 0.843765 25.4479 0.843765 25.4986C0.843765 26.8116 0.976716 28.5062 1.20546 29.6309C1.31458 30.1785 1.76533 31.0376 2.42619 31.7225C5.43228 34.8199 12.9268 39.16 25.9062 39.16C43.5901 39.16 47.6335 33.337 48.4591 31.4221C49.0496 30.0526 49.3554 27.5777 49.3554 25.4988C49.3554 24.9957 49.3427 24.5937 49.3235 24.1993C49.3235 24.1353 49.286 24.13 49.2731 24.1924C48.3893 28.8781 33.2805 35.1078 20.2243 35.1078ZM3.18214 15.2165C2.47079 16.612 1.68229 18.9664 1.44788 20.1848C1.34513 20.707 1.3889 20.9576 1.57411 21.3473C3.06205 24.468 10.5883 29.4611 28.1442 29.4611C38.8546 29.4611 47.1747 26.8601 48.5226 22.1135C48.7708 21.2397 48.7841 20.3172 48.4652 19.0742C48.109 17.6851 47.4417 16.0652 46.877 14.9277C46.8584 14.8906 46.8255 14.8961 46.8322 14.94C47.042 21.1655 29.4792 25.1778 20.6177 25.1778C11.0192 25.1778 3.01133 21.3974 3.01133 16.6239C3.01133 16.1653 3.10735 15.7066 3.22721 15.2292C3.23924 15.1856 3.20149 15.1783 3.18214 15.2165ZM41.1178 7.57289C41.2198 7.73077 41.2706 7.89928 41.2706 8.1261C41.2706 10.7891 33.0257 15.5 19.9008 15.5C10.2571 15.5 8.45157 11.9636 8.45157 9.71461C8.45157 8.91068 8.76348 8.08808 9.45041 7.25266C9.48793 7.20298 9.45607 7.18386 9.41278 7.22083C8.15995 8.27035 7.00881 9.45129 5.999 10.7261C5.5165 11.329 5.21698 11.8631 5.21698 12.1831C5.21698 16.8437 17.0394 20.2229 28.0937 20.2229C39.872 20.2229 45.1288 16.4221 45.1288 13.0818C45.1288 11.8881 44.6586 11.1912 43.456 9.84009C42.6755 8.96117 41.9371 8.24551 41.1555 7.54105C41.1178 7.51026 41.0915 7.53534 41.1178 7.57289ZM37.5069 4.91048C33.8718 2.75663 29.6505 1.53125 25.0996 1.53125C20.5171 1.53125 16.1686 2.79942 12.5204 5.0103C11.4262 5.67605 10.8102 6.20956 10.8102 6.89536C10.8102 8.91697 15.5897 11.0907 24.0692 11.0907C32.4606 11.0907 38.9692 8.70974 38.9692 6.41794C38.9692 5.87091 38.4856 5.48818 37.5069 4.91048Z" fill="#6A6F73"/>
</g>
</g>
<defs>
<clipPath id="clip0_56_946">
<rect width="119.229" height="49.1667" fill="white" transform="translate(0.229187 0.916504)"/>
</clipPath>
</defs>
</svg>
