<svg width="108" height="51" viewBox="0 0 108 51" fill="none" xmlns="http://www.w3.org/2000/svg">
<path d="M97.1164 40.1113C97.1164 45.4299 92.9407 49.4729 87.4687 49.4695C81.9967 49.466 77.8452 45.4127 77.8486 40.0804C77.8521 34.7481 82.0348 30.7084 87.4964 30.7188C92.9579 30.7291 97.1233 34.796 97.1164 40.1113ZM92.2355 40.1113C92.2253 39.1815 91.9383 38.2753 91.4108 37.5068C90.8831 36.7382 90.1383 36.1415 89.2701 35.7914C88.4017 35.4414 87.4483 35.3536 86.5299 35.5392C85.6114 35.7248 84.7687 36.1755 84.1076 36.8347C83.4465 37.4938 82.9964 38.3321 82.814 39.2441C82.6314 40.1563 82.7247 41.1015 83.0819 41.9612C83.4393 42.8209 84.0445 43.5567 84.8219 44.0761C85.5993 44.5957 86.5141 44.8758 87.4514 44.8812C88.0843 44.8934 88.713 44.7785 89.2999 44.5435C89.8867 44.3084 90.4197 43.958 90.8666 43.5134C91.3134 43.0688 91.6651 42.5392 91.9003 41.9562C92.1356 41.3733 92.2497 40.7493 92.2355 40.1215V40.1113Z" fill="#6A6F73"/>
<path d="M42.0779 46.9094C42.0779 46.3607 42.0987 45.812 42.0779 45.2736C42.0573 44.8964 42.1402 44.8142 42.5238 44.9307C44.0269 45.3582 45.5911 45.5343 47.1524 45.452C47.7496 45.4359 48.3374 45.3007 48.8807 45.0542C49.9869 44.5124 50.0837 43.3397 49.0916 42.6264C48.5364 42.2704 47.9255 42.0085 47.2838 41.8514C46.1301 41.5345 45.0345 41.0379 44.0379 40.3802C41.0721 38.2987 41.4904 33.5219 44.5564 31.7628C45.8863 31.0351 47.3906 30.6795 48.9084 30.7339C50.2716 30.7611 51.6288 30.9231 52.9597 31.2175C53.2363 31.2758 53.333 31.3786 53.3261 31.6736C53.3054 32.7229 53.3088 33.7756 53.3261 34.8284C53.3261 35.1028 53.2708 35.1714 52.9804 35.0959C51.7436 34.7542 50.4612 34.6026 49.1781 34.6466C48.5972 34.6599 48.0281 34.8116 47.5188 35.089C47.3366 35.176 47.1804 35.3084 47.0654 35.4732C46.9502 35.6381 46.8801 35.8297 46.8621 36.0294C46.844 36.2292 46.8784 36.4302 46.962 36.6127C47.0456 36.7953 47.1755 36.9533 47.3391 37.071C47.7656 37.3936 48.2536 37.6269 48.7735 37.7569C49.7005 38.0104 50.6063 38.3338 51.4836 38.7239C53.4194 39.7081 54.5948 41.2101 54.5948 43.415C54.5948 45.716 53.5854 47.4512 51.4836 48.5142C50.2449 49.1158 48.8875 49.4389 47.5085 49.4607C45.8004 49.4919 44.0936 49.354 42.4132 49.0491C42.1367 49.008 42.0676 48.9051 42.0676 48.6376C42.0918 48.0582 42.0779 47.4821 42.0779 46.9094Z" fill="#6A6F73"/>
<path d="M72.9888 36.2205C71.6808 35.548 70.2196 35.2232 68.7474 35.2775C67.4639 35.2479 66.2211 35.7254 65.2925 36.6049C64.3638 37.4842 63.8254 38.6936 63.7956 39.9669C63.7658 41.2402 64.2472 42.473 65.1336 43.3942C66.0201 44.3154 67.2392 44.8496 68.5227 44.8791C69.9562 44.9891 71.3935 44.7242 72.6915 44.111C72.733 44.0783 72.7807 44.0542 72.8318 44.0401C72.8828 44.026 72.9361 44.022 72.9888 44.0287V47.8214C72.9888 48.8501 72.9888 48.8501 71.9517 49.0799C69.3938 49.6662 66.8634 49.6628 64.4437 48.5415C61.0561 46.9709 59.2587 44.2825 59.0859 40.5858C58.9268 37.3178 60.0814 34.5882 62.7604 32.5958C64.6478 31.1899 66.8255 30.6618 69.1622 30.7236C70.3459 30.7582 71.5203 30.9426 72.6569 31.2723C72.8263 31.3202 72.9853 31.3443 72.9853 31.6152C72.9819 33.1206 72.9888 34.6431 72.9888 36.2205Z" fill="#6A6F73"/>
<path d="M24.9083 36.2228C23.6006 35.5464 22.1371 35.2213 20.6635 35.2798C19.38 35.2525 18.1382 35.7321 17.2111 36.6131C16.2841 37.4941 15.7479 38.7045 15.7204 39.9777C15.6929 41.251 16.1764 42.483 17.0645 43.4025C17.9526 44.3222 19.1726 44.8541 20.4561 44.8814C21.9732 44.9925 23.4919 44.6876 24.8461 44.0001C24.9533 44.1166 24.9049 44.2436 24.9049 44.3431C24.9049 45.7147 24.9049 47.0487 24.9049 48.3997C24.9049 48.6843 24.8461 48.825 24.535 48.9106C21.7696 49.6377 19.0319 49.7508 16.3771 48.5334C12.9205 46.9491 11.1645 44.2059 11.0089 40.4612C10.881 37.4504 11.9111 34.8888 14.2513 32.9171C15.729 31.6895 17.551 30.9414 19.471 30.7738C21.1737 30.6066 22.8931 30.766 24.535 31.2436C24.7977 31.3156 24.9083 31.4116 24.9049 31.7099C24.898 33.2223 24.9083 34.6796 24.9083 36.2228Z" fill="#6A6F73"/>
<path d="M31.252 15.8697V27.666C31.252 28.8834 30.54 29.8161 29.4545 30.0424C29.1241 30.1143 28.7816 30.1128 28.4519 30.0381C28.1219 29.9633 27.8129 29.8172 27.5467 29.6101C27.2805 29.403 27.0636 29.1401 26.9118 28.8401C26.7599 28.5402 26.6768 28.2107 26.6685 27.8752V4.03564C26.6685 3.12348 26.9691 2.37249 27.7746 1.88555C28.1164 1.66225 28.515 1.53955 28.9243 1.53166C29.3335 1.52377 29.7367 1.63101 30.0871 1.84097C30.4587 2.03924 30.7665 2.33746 30.975 2.70142C31.1834 3.06536 31.2843 3.48025 31.2658 3.89848C31.2658 7.23162 31.2658 10.5636 31.2658 13.8945C31.252 14.5631 31.252 15.2181 31.252 15.8697Z" fill="#6A6F73"/>
<path d="M76.922 15.8186V3.9365C76.922 2.69171 77.6445 1.79327 78.7886 1.59095C79.3803 1.48154 79.9916 1.60923 80.4885 1.94603C80.9855 2.28283 81.3275 2.80129 81.4399 3.38783C81.4612 3.50105 81.4738 3.61567 81.478 3.73075V27.5772C81.5049 28.0835 81.3849 28.5869 81.1322 29.0277C80.8709 29.4419 80.4819 29.7614 80.0229 29.9386C79.5639 30.116 79.0595 30.1417 78.5847 30.0119C78.1016 29.8809 77.6763 29.5941 77.3759 29.1966C77.0755 28.7992 76.9169 28.3139 76.9254 27.8172C76.9254 24.5389 76.9254 21.264 76.9254 17.9857C76.922 17.2657 76.922 16.5421 76.922 15.8186Z" fill="#6A6F73"/>
<path d="M35.8634 40.0813C35.8634 42.9619 35.8634 45.8423 35.8634 48.7228C35.8634 49.0658 35.7632 49.1514 35.4279 49.1446C34.1488 49.1275 32.8664 49.1446 31.5875 49.1446C31.3212 49.1446 31.2418 49.0829 31.2418 48.8016C31.2418 42.9949 31.2418 37.1905 31.2418 31.3884C31.2418 31.1037 31.3178 31.0215 31.6082 31.0215C32.8767 31.0215 34.1419 31.042 35.4105 31.0215C35.7562 31.0215 35.8702 31.1037 35.8702 31.4707C35.8565 34.3512 35.8634 37.218 35.8634 40.0813Z" fill="#6A6F73"/>
<path d="M94.0398 17.842C94.0398 19.6868 94.0398 21.5282 94.0398 23.3698C94.0376 23.9181 93.8354 24.4471 93.4706 24.8592C93.1057 25.2711 92.6029 25.538 92.055 25.6108C91.5071 25.6836 90.9512 25.5571 90.49 25.2548C90.0288 24.9526 89.6935 24.495 89.546 23.9664C89.4777 23.7441 89.4415 23.5131 89.4389 23.2805C89.4389 19.648 89.4389 16.0165 89.4389 12.3861C89.4173 11.9445 89.5327 11.507 89.7695 11.1324C90.0061 10.7578 90.3528 10.4642 90.7627 10.2909C91.1158 10.1266 91.505 10.0542 91.8941 10.0805C92.2831 10.1068 92.6589 10.231 92.9862 10.4413C93.3134 10.6516 93.5811 10.9412 93.7643 11.2827C93.9474 11.6241 94.0398 12.0063 94.0328 12.393V17.842H94.0398Z" fill="#6A6F73"/>
<path d="M14.093 17.8139C14.093 15.9999 14.093 14.1825 14.093 12.3684C14.0878 11.8765 14.2441 11.3962 14.5379 10.9999C14.832 10.6036 15.2477 10.3128 15.7226 10.1712C16.1976 10.0296 16.7061 10.045 17.1714 10.2149C17.6369 10.3848 18.0341 10.7001 18.3033 11.1133C18.5515 11.4954 18.6813 11.9413 18.6766 12.3958C18.6766 16.0136 18.6766 19.6314 18.6766 23.2526C18.6729 23.8555 18.4279 24.4324 17.9955 24.8562C17.5632 25.28 16.9787 25.516 16.3709 25.5123C15.7631 25.5088 15.1817 25.2658 14.7544 24.8368C14.3271 24.4078 14.0893 23.8281 14.093 23.2251C14.086 21.4214 14.093 19.6176 14.093 17.8139Z" fill="#6A6F73"/>
<path d="M39.2021 17.8352C39.2021 16.0178 39.2021 14.2004 39.2021 12.3863C39.1954 11.9533 39.3135 11.5273 39.5425 11.1586C39.7715 10.7899 40.1019 10.4937 40.4947 10.305C40.8877 10.1162 41.3268 10.0427 41.7604 10.0931C42.1939 10.1435 42.6041 10.3157 42.9424 10.5894C43.2128 10.7932 43.4309 11.0576 43.5786 11.361C43.7263 11.6643 43.7997 11.998 43.7927 12.3349C43.7927 15.9926 43.7927 19.6505 43.7927 23.3082C43.7954 23.6054 43.7391 23.9003 43.627 24.1759C43.5148 24.4515 43.3491 24.7026 43.1392 24.9146C42.9292 25.1267 42.6792 25.2957 42.4035 25.412C42.1277 25.5281 41.8316 25.5893 41.532 25.592H41.5113C41.2029 25.5926 40.8975 25.5318 40.6132 25.4132C40.3289 25.2947 40.0715 25.1206 39.8563 24.9017C39.641 24.6827 39.4722 24.423 39.3598 24.1382C39.2475 23.8532 39.1939 23.5489 39.2021 23.2431C39.2021 21.4393 39.2021 19.6356 39.2021 17.8352Z" fill="#6A6F73"/>
<path d="M68.9302 17.8574C68.9302 19.6576 68.9302 21.4614 68.9302 23.2618C68.9447 23.6872 68.8349 24.1077 68.6141 24.4727C68.3934 24.8378 68.071 25.1317 67.6856 25.3193C67.3281 25.5163 66.9211 25.6081 66.5128 25.5838C66.1043 25.5596 65.7113 25.4202 65.3801 25.1821C64.6265 24.6848 64.343 23.9475 64.343 23.0662C64.343 19.98 64.343 16.8937 64.343 13.8075C64.343 13.2897 64.3223 12.7788 64.343 12.2541C64.3618 11.6547 64.6198 11.0874 65.0604 10.6767C65.5009 10.2661 66.0877 10.0459 66.6918 10.0646C67.296 10.0832 67.868 10.3392 68.2819 10.7762C68.6958 11.2131 68.9177 11.7953 68.8989 12.3947C68.9302 14.2259 68.9302 16.0434 68.9302 17.8574Z" fill="#6A6F73"/>
<path d="M1.52433 20.9529V18.6622C1.52093 18.3636 1.57683 18.0673 1.68886 17.7902C1.80089 17.5131 1.96685 17.2606 2.17725 17.0471C2.38766 16.8336 2.6384 16.6632 2.91514 16.5458C3.1919 16.4284 3.48925 16.3664 3.79021 16.3629C4.09117 16.3596 4.38986 16.4151 4.66921 16.5262C4.94858 16.6373 5.20313 16.802 5.41835 17.0107C5.63357 17.2194 5.80525 17.4682 5.92357 17.7427C6.04188 18.0173 6.10454 18.3123 6.10794 18.6108C6.13098 20.1654 6.13098 21.7199 6.10794 23.2744C6.11343 23.5761 6.05847 23.8757 5.94623 24.1561C5.834 24.4365 5.66673 24.6919 5.45415 24.9075C5.24156 25.1232 4.9879 25.2948 4.7079 25.4124C4.42789 25.5301 4.12711 25.5913 3.82304 25.5926C3.51638 25.5899 3.2133 25.527 2.93132 25.4073C2.64935 25.2877 2.39409 25.1137 2.18031 24.8957C1.96653 24.6775 1.79848 24.4195 1.68589 24.1366C1.57329 23.8535 1.51838 23.5512 1.52433 23.247C1.52433 22.4823 1.52433 21.7176 1.52433 20.9529Z" fill="#6A6F73"/>
<path d="M56.3477 20.9606C56.3477 21.7391 56.365 22.5175 56.3477 23.2925C56.3532 23.8365 56.161 24.3643 55.8061 24.7793C55.4512 25.1941 54.9576 25.4684 54.4157 25.5517C53.8736 25.635 53.3195 25.5218 52.8548 25.2329C52.39 24.9439 52.0458 24.4986 51.8851 23.9782C51.8116 23.7288 51.7754 23.47 51.7779 23.2101C51.7779 21.6807 51.7779 20.1514 51.7779 18.6219C51.7681 18.1124 51.9317 17.6145 52.2425 17.2087C52.5534 16.803 52.993 16.5133 53.4906 16.3863C53.988 16.2593 54.5141 16.3027 54.9838 16.5092C55.4533 16.7158 55.8389 17.0735 56.0781 17.5246C56.2652 17.8908 56.3578 18.2973 56.3477 18.7077C56.3511 19.4586 56.3477 20.2096 56.3477 20.9606Z" fill="#6A6F73"/>
<path d="M106.609 20.9677C106.609 21.7598 106.63 22.552 106.609 23.3441C106.625 23.9036 106.432 24.4491 106.066 24.8751C105.7 25.3013 105.188 25.5775 104.629 25.6505C104.07 25.7235 103.503 25.5881 103.038 25.2703C102.574 24.9526 102.245 24.4752 102.115 23.9305C102.05 23.6798 102.018 23.4214 102.022 23.1624C102.022 21.6879 102.022 20.2098 102.022 18.7353C102.022 17.4494 102.789 16.5236 103.951 16.3349C104.277 16.2817 104.611 16.3001 104.929 16.389C105.247 16.4778 105.542 16.6349 105.792 16.8492C106.042 17.0634 106.242 17.3295 106.377 17.6288C106.512 17.9281 106.58 18.2531 106.574 18.5811C106.609 19.3835 106.609 20.1893 106.609 20.9677Z" fill="#6A6F73"/>
</svg>
