<svg width="77" height="51" viewBox="0 0 77 51" fill="none" xmlns="http://www.w3.org/2000/svg">
<g clip-path="url(#clip0_56_998)">
<path d="M23.6248 40.5171L23.487 40.6508C21.322 42.8566 18.8167 44.022 16.236 44.022C10.8463 44.022 6.93648 39.9786 6.93648 34.4014C6.93648 28.8329 10.8463 24.7831 16.236 24.7831C18.8167 24.7831 21.322 25.955 23.487 28.1694L23.6248 28.3008L27.0909 24.1089L26.9983 23.9969C24.116 20.5911 20.6564 18.9346 16.4041 18.9346C12.141 18.9346 8.2376 20.3713 5.42856 22.9585C2.36963 25.7632 0.760468 29.7183 0.760468 34.4014C0.760468 39.0847 2.36963 43.0484 5.42856 45.8531C8.2376 48.4553 12.141 49.8813 16.4041 49.8813C20.6564 49.8813 24.116 48.2227 26.9983 44.8148L27.0909 44.7113L23.6248 40.5171Z" fill="#6A6F73"/>
<path d="M30.5917 49.3053H36.7138V19.4141H30.5917V49.3053Z" fill="#6A6F73"/>
<path d="M60.6993 42.8128C59.0643 43.8081 57.5455 44.31 56.1798 44.31C54.2001 44.31 53.304 43.2631 53.304 40.9365V25.0753H59.5446V19.4487H53.304V10.147L47.3046 13.361V19.4487H42.126V25.0753H47.3046V41.9469C47.3046 46.5416 50.0275 49.6868 54.0946 49.7686C56.8541 49.8225 58.517 48.9996 59.5252 48.3964L59.5899 48.3555L61.0612 42.591L60.6993 42.8128Z" fill="#6A6F73"/>
<path d="M65.767 49.3053H71.8979V19.4141H65.767V49.3053Z" fill="#6A6F73"/>
<path d="M75.4686 14.1791C69.8743 6.25603 60.5855 1.52979 51.1352 1.52979C41.6869 1.52979 32.396 6.25603 26.8124 14.1791L26.5238 14.5862H33.5679L33.6455 14.5021C38.4385 9.55192 44.6985 6.93676 51.1352 6.93676C57.5718 6.93676 63.8275 9.55192 68.6314 14.5021L68.7088 14.5862H75.7487L75.4686 14.1791Z" fill="#6A6F73"/>
</g>
<defs>
<clipPath id="clip0_56_998">
<rect width="76.2083" height="49.1667" fill="white" transform="translate(0.145874 0.916504)"/>
</clipPath>
</defs>
</svg>
