<svg width="69" height="59" viewBox="0 0 69 59" fill="none" xmlns="http://www.w3.org/2000/svg">
<g clip-path="url(#clip0_56_1004)">
<mask id="mask0_56_1004" style="mask-type:luminance" maskUnits="userSpaceOnUse" x="0" y="0" width="69" height="59">
<path d="M68.198 0H0.916626V59H68.198V0Z" fill="white"/>
</mask>
<g mask="url(#mask0_56_1004)">
<path d="M44.0293 12.5479L22.6685 19.6563C20.6426 20.3316 19.5409 22.5352 20.216 24.5611C20.8913 26.5871 23.095 27.6888 25.1209 27.0135L46.4817 19.9051C48.5076 19.2298 49.6095 17.0261 48.9342 15.0003C48.2589 12.9744 46.0552 11.8725 44.0293 12.5479Z" fill="#6A6F73"/>
<path d="M44.0293 0.212913L22.6685 7.32135C20.6426 7.99665 19.5409 10.2003 20.216 12.2262C20.8913 14.2521 23.095 15.3539 25.1209 14.6786L46.4817 7.57014C48.5076 6.89484 49.6095 4.69123 48.9342 2.66533C48.2589 0.639419 46.0552 -0.462389 44.0293 0.212913Z" fill="#6A6F73"/>
<path d="M44.0294 24.878L22.6331 31.9865C20.6071 32.6618 19.5053 34.8653 20.1806 36.8912C20.8559 38.9171 23.0596 40.0189 25.0855 39.3436L46.4463 32.2353C48.4722 31.5599 49.5741 29.3563 48.8988 27.3304C48.259 25.3045 46.0553 24.2026 44.0294 24.878Z" fill="#6A6F73"/>
<path d="M3.5112 54.9839H8.0606V52.9224H3.5112V51.1808H8.23832V49.1904H0.916626V58.7869H8.3094V56.761H3.5112V54.9839Z" fill="#6A6F73"/>
<path d="M22.2416 49.1904H19.647V58.7869H22.2416V49.1904Z" fill="#6A6F73"/>
<path d="M26.1871 53.9174C26.2581 50.7186 29.4569 50.3276 31.5895 51.536L31.7671 49.4746C28.1063 48.0885 23.5214 49.3325 23.5214 53.8819C23.4859 58.5379 28.0353 59.7464 31.8028 58.5379L31.6606 56.4409C29.5281 57.5782 26.1516 57.1162 26.1871 53.9174Z" fill="#6A6F73"/>
<path d="M35.4638 51.7146C35.4638 50.5772 37.9518 50.6129 39.2669 51.3237L39.4445 49.3333C36.2812 48.3737 32.7982 49.12 32.7982 51.9278C32.7982 55.3399 37.2765 54.4869 37.2765 56.0152C37.2765 57.4014 34.8241 57.2237 33.118 56.4417L32.9404 58.5743C35.6771 59.3917 39.9066 59.3562 39.9066 55.802C39.9066 52.2122 35.4638 53.4206 35.4638 51.7146Z" fill="#6A6F73"/>
<path d="M43.3537 51.7146C43.3537 50.5772 45.8417 50.6129 47.1568 51.3237L47.3345 49.3333C44.1713 48.3737 40.688 49.12 40.688 51.9278C40.688 55.3399 45.1664 54.4869 45.1664 56.0152C45.1664 57.4014 42.714 57.2237 41.008 56.4417L40.7947 58.5743C43.5315 59.3917 47.7966 59.3562 47.7966 55.802C47.7966 52.2122 43.3537 53.4206 43.3537 51.7146Z" fill="#6A6F73"/>
<path d="M65.817 49.1904V55.3749L62.6537 49.1904H59.3483V58.7869H61.7652V52.4604L65.0705 58.7869H68.1983V49.1904H65.817Z" fill="#6A6F73"/>
<path d="M53.3059 48.9409C50.6047 48.9409 48.5433 50.5403 48.5433 53.9879C48.5433 57.3289 50.6047 58.9993 53.3059 58.9993C56.0071 58.9993 58.0686 57.2934 58.0686 53.9879C58.1041 50.5403 56.0427 48.9409 53.3059 48.9409ZM53.3059 57.1156C51.8486 57.1156 51.2088 55.4452 51.2088 53.9879C51.2088 52.5307 51.8486 50.8603 53.3059 50.8603C54.7631 50.8603 55.4029 52.6373 55.4029 53.9879C55.4029 55.4452 54.7986 57.1156 53.3059 57.1156Z" fill="#6A6F73"/>
<path d="M16.2352 54.0598C17.3371 53.7398 17.9058 53.029 17.9058 51.7496C17.9058 49.7592 16.1287 49.1904 14.8491 49.1904H10.1576V58.7869H12.7166V55.1616C12.7166 55.126 13.3564 55.1616 13.7473 55.1616C14.2095 55.1616 14.5293 55.4459 14.707 55.9079L15.7022 58.7869H18.4744C18.4744 58.7869 17.1238 55.0549 17.1238 55.0194C16.8395 54.3086 16.2709 54.0598 16.2352 54.0598ZM14.0672 53.2067H12.6455V51.0743H14.1028C14.7781 51.0743 15.2756 51.5008 15.2756 52.1404C15.3112 52.8513 14.707 53.2423 14.0672 53.2067Z" fill="#6A6F73"/>
</g>
</g>
<defs>
<clipPath id="clip0_56_1004">
<rect width="67.6042" height="59" fill="white" transform="translate(0.916626)"/>
</clipPath>
</defs>
</svg>
