<svg width="37" height="37" viewBox="0 0 37 37" fill="none" xmlns="http://www.w3.org/2000/svg">
<g clip-path="url(#clip0_56_1331)">
<path d="M37 18.5C37 8.28273 28.7173 0 18.5 0C8.28273 0 0 8.28273 0 18.5C0 27.7339 6.76518 35.3874 15.6094 36.7753V23.8477H10.9121V18.5H15.6094V14.4242C15.6094 9.78766 18.3713 7.22656 22.5971 7.22656C24.6212 7.22656 26.7383 7.58789 26.7383 7.58789V12.1406H24.4055C22.1073 12.1406 21.3906 13.5667 21.3906 15.0297V18.5H26.5215L25.7013 23.8477H21.3906V36.7753C30.2348 35.3874 37 27.7339 37 18.5Z" fill="#1877F2"/>
<path d="M25.7013 23.8477L26.5215 18.5H21.3906V15.0297C21.3906 13.5667 22.1073 12.1406 24.4055 12.1406H26.7383V7.58789C26.7383 7.58789 24.6212 7.22656 22.5971 7.22656C18.3713 7.22656 15.6094 9.78766 15.6094 14.4242V18.5H10.9121V23.8477H15.6094V36.7753C16.5512 36.923 17.5166 37 18.5 37C19.4834 37 20.4488 36.923 21.3906 36.7753V23.8477H25.7013Z" fill="white"/>
</g>
<defs>
<clipPath id="clip0_56_1331">
<rect width="37" height="37" fill="white"/>
</clipPath>
</defs>
</svg>
