<svg width="117" height="51" viewBox="0 0 117 51" fill="none" xmlns="http://www.w3.org/2000/svg">
<mask id="mask0_56_968" style="mask-type:luminance" maskUnits="userSpaceOnUse" x="1" y="1" width="115" height="49">
<path d="M115.974 1.53125H1.66115V49.4688H115.974V1.53125Z" fill="white"/>
</mask>
<g mask="url(#mask0_56_968)">
<path d="M38.3861 10.3874H4.16394V4.019H38.3861V10.3874ZM40.8313 1.56006H1.71756V12.8401H40.8313V1.56006Z" fill="#6A6F73"/>
<path d="M4.16376 31.4897H1.71877V20.2065H4.16376V24.6639H8.5322V20.2065H10.9772V31.4897H8.5322V26.8154H4.16376V31.4897Z" fill="#6A6F73"/>
<path d="M14.7038 26.5105H17.6161C17.5619 25.681 17.2209 25.1028 16.2677 25.1028C15.5485 25.1028 14.9193 25.4102 14.7038 26.5105ZM16.5552 31.6362C14.0746 31.6362 12.3851 30.0659 12.3851 27.4862C12.3851 24.9768 14.0389 23.2446 16.232 23.2446C18.6227 23.2446 19.8093 24.8507 19.8093 27.2512V28.1539H14.7038C14.9922 29.3982 15.9623 29.7227 16.9334 29.7227C17.7781 29.7227 18.3887 29.5429 19.1435 29.073H19.2343V30.932C18.5871 31.4019 17.6695 31.6362 16.5552 31.6362Z" fill="#6A6F73"/>
<path d="M26.1728 26.7594L24.9142 31.4874H22.7754L20.3303 23.5503V23.46H22.6676L23.9974 28.2068L25.2559 23.46H27.1615L28.4379 28.2068L29.7864 23.46H32.0337V23.5503L29.5888 31.4874H27.449L26.1728 26.7594Z" fill="#6A6F73"/>
<path d="M35.9679 31.6147C34.0265 31.6147 33.2353 30.8388 33.2353 29.0165V20.1533H35.6082V28.853C35.6082 29.4125 35.8237 29.611 36.291 29.611C36.453 29.611 36.6871 29.5573 36.8304 29.5029H36.8668V31.47C36.6692 31.5415 36.3274 31.6147 35.9679 31.6147Z" fill="#6A6F73"/>
<path d="M39.8742 26.5105H42.7864C42.7322 25.681 42.3911 25.1028 41.4381 25.1028C40.7196 25.1028 40.0895 25.4102 39.8742 26.5105ZM41.7256 31.6362C39.2448 31.6362 37.5555 30.0659 37.5555 27.4862C37.5555 24.9768 39.2092 23.2446 41.4024 23.2446C43.7931 23.2446 44.9795 24.8507 44.9795 27.2512V28.1539H39.8742C40.1617 29.3982 41.1327 29.7227 42.1029 29.7227C42.9485 29.7227 43.5591 29.5429 44.3147 29.073H44.4045V30.932C43.7575 31.4019 42.8407 31.6362 41.7256 31.6362Z" fill="#6A6F73"/>
<path d="M54.7532 23.4588H56.5148V25.3715H54.7532V28.6381C54.7532 29.3423 55.0229 29.6675 55.7421 29.6675C55.9398 29.6675 56.1916 29.6488 56.4613 29.5586H56.5148V31.4356C56.2094 31.5445 55.7421 31.6697 55.0594 31.6697C53.1352 31.6697 52.3803 30.7858 52.3803 28.7463V25.3715H49.3424V28.6381C49.3424 29.3423 49.6121 29.6675 50.3306 29.6675C50.529 29.6675 50.7808 29.6488 51.0505 29.5586H51.104V31.4356C50.7986 31.5445 50.3306 31.6697 49.6486 31.6697C47.7244 31.6697 46.9695 30.7858 46.9695 28.7463V25.3715H45.7466V23.4588H46.9695V21.2573H49.3424V23.4588H52.3803V21.2573H54.7532V23.4588Z" fill="#6A6F73"/>
<path d="M64.4868 25.7005C65.7282 25.7005 66.3203 24.9971 66.3203 23.9863C66.3203 22.939 65.7282 22.2355 64.4868 22.2355H62.9407V25.7005H64.4868ZM68.8018 23.9863C68.8018 26.4413 67.1659 27.7759 64.6844 27.7759H62.9407V31.4394H60.4973V20.1562H64.6844C67.1659 20.1562 68.8018 21.4916 68.8018 23.9824" fill="#6A6F73"/>
<path d="M74.0341 28.9383V28.2527C73.6745 28.055 73.2079 27.9828 72.7221 27.9828C71.9494 27.9828 71.4821 28.2706 71.4821 28.9204C71.4821 29.5888 71.9494 29.8775 72.65 29.8775C73.3149 29.8775 73.8186 29.5343 74.0341 28.9383ZM74.1061 30.6712C73.5846 31.3031 72.8128 31.6097 71.9843 31.6097C70.4212 31.6097 69.1441 30.6541 69.1441 28.9561C69.1441 27.3866 70.4212 26.34 72.254 26.34C72.829 26.34 73.4234 26.4303 74.0341 26.61V26.4668C74.0341 25.6 73.5489 25.2218 72.2734 25.2218C71.4635 25.2218 70.6909 25.4552 70.0251 25.835H69.936V23.9216C70.5468 23.5613 71.6263 23.2539 72.6857 23.2539C75.095 23.2539 76.407 24.4087 76.407 26.4303V31.465H74.1061V30.6712Z" fill="#6A6F73"/>
<path d="M77.5682 27.445C77.5682 24.8638 79.3846 23.2397 81.7577 23.2397C82.6023 23.2397 83.3928 23.4203 83.9864 23.853V25.8925H83.8957C83.3741 25.4956 82.7635 25.2606 82.063 25.2606C80.8765 25.2606 79.9776 26.0738 79.9776 27.445C79.9776 28.816 80.8765 29.6105 82.063 29.6105C82.7635 29.6105 83.3741 29.3755 83.8957 28.9779H83.9864V31.0174C83.3928 31.4508 82.6023 31.6314 81.7577 31.6314C79.3846 31.6314 77.5682 30.0261 77.5682 27.445Z" fill="#6A6F73"/>
<path d="M87.8597 27.8186V31.4634H85.4875V20.1802H87.8597V26.6047L90.2512 23.4282H92.9472V23.5185L90.0714 27.1641L92.9472 31.3693V31.4595H90.2326L87.8597 27.8147" fill="#6A6F73"/>
<path d="M98.2744 28.9383V28.2527C97.9157 28.055 97.4476 27.9828 96.9624 27.9828C96.1899 27.9828 95.7226 28.2706 95.7226 28.9204C95.7226 29.5888 96.1899 29.8775 96.8897 29.8775C97.5561 29.8775 98.0591 29.5343 98.2744 28.9383ZM98.3466 30.6712C97.8251 31.3031 97.0517 31.6097 96.2255 31.6097C94.6608 31.6097 93.3853 30.6541 93.3853 28.9561C93.3853 27.3866 94.6608 26.34 96.496 26.34C97.071 26.34 97.6631 26.4303 98.2744 26.61V26.4668C98.2744 25.6 97.7894 25.2218 96.5131 25.2218C95.7048 25.2218 94.9305 25.4552 94.2656 25.835H94.1758V23.9216C94.7872 23.5613 95.8659 23.2539 96.9261 23.2539C99.3362 23.2539 100.648 24.4087 100.648 26.4303V31.465H98.3466V30.6712Z" fill="#6A6F73"/>
<path d="M104.661 24.7052C105.092 23.8205 105.722 23.3154 106.603 23.3154C106.926 23.3154 107.249 23.3878 107.374 23.4602V25.7339H107.285C107.015 25.625 106.692 25.5534 106.242 25.5534C105.505 25.5534 104.93 25.9869 104.732 26.8163V31.437H102.36V23.4065H104.661V24.7052Z" fill="#6A6F73"/>
<path d="M113.65 28.7521V26.171C113.255 25.5935 112.734 25.3414 112.14 25.3414C111.098 25.3414 110.397 26.1002 110.397 27.4712C110.397 28.8424 111.098 29.5824 112.14 29.5824C112.734 29.5824 113.255 29.3295 113.65 28.7521ZM113.722 30.6476C113.219 31.2975 112.427 31.6578 111.349 31.6578C109.3 31.6578 107.988 29.7816 107.988 27.4712C107.988 25.161 109.3 23.2661 111.349 23.2661C112.392 23.2661 113.147 23.5915 113.65 24.1868V20.1987H116.023V31.4741H113.722V30.6446" fill="#6A6F73"/>
<path d="M1.74577 35.1631H8.68475V36.5342H3.30965V39.9806H8.18103V41.3167H3.30965V45.0704H8.68475V46.4416H1.74577V35.1662" fill="#6A6F73"/>
<path d="M14.3929 38.3384C16.1722 38.3384 17.161 39.5119 17.161 41.4417V46.4413H15.6693V41.4783C15.6693 40.4496 15.1478 39.7095 14.0155 39.7095C13.0809 39.7095 12.2897 40.3055 12.02 41.153V46.4413H10.5282V38.5042H12.02V39.659C12.4873 38.9189 13.2786 38.3416 14.3929 38.3416" fill="#6A6F73"/>
<path d="M21.1508 38.4634H23.182V39.745H21.1508V44.0217C21.1508 44.9236 21.6181 45.2309 22.4628 45.2309C22.696 45.2309 22.9479 45.1952 23.1276 45.1228H23.182V46.4037C22.9665 46.4939 22.6603 46.5663 22.2473 46.5663C20.3952 46.5663 19.6589 45.7173 19.6589 44.1665V39.745H18.2927V38.4634H19.6589V36.353H21.1508V38.4634Z" fill="#6A6F73"/>
<path d="M25.6767 41.7004H29.6135C29.56 40.5276 28.9843 39.6258 27.7621 39.6258C26.6299 39.6258 25.8922 40.474 25.6767 41.7004ZM28.0318 46.6096C25.7123 46.6096 24.1306 45.0573 24.1306 42.5672C24.1306 40.0764 25.6047 38.3442 27.7443 38.3442C29.9195 38.3442 31.0518 39.9145 31.0518 42.2419V42.9283H25.6225C25.7844 44.5343 26.8097 45.3102 28.2294 45.3102C29.1105 45.3102 29.739 45.1118 30.4403 44.588H30.4947V45.9062C29.8475 46.4113 29.0021 46.6096 28.0318 46.6096Z" fill="#6A6F73"/>
<path d="M34.3562 39.7067C34.698 38.8586 35.4536 38.3535 36.3154 38.3535C36.6578 38.3535 36.9633 38.4072 37.0888 38.4796V39.9588H37.0353C36.8191 39.8515 36.4594 39.797 36.0999 39.797C35.2916 39.797 34.6081 40.3378 34.3562 41.2405V46.4198H32.8645V38.4827H34.3562V39.7099" fill="#6A6F73"/>
<path d="M41.8582 45.2489C43.3322 45.2489 44.1954 44.0763 44.1954 42.4694C44.1954 40.8819 43.3322 39.6913 41.8582 39.6913C41.0491 39.6913 40.2943 40.1784 39.8991 40.9536V44.0046C40.2943 44.7797 41.0491 45.2489 41.8582 45.2489ZM42.11 38.3374C44.4644 38.3374 45.7229 40.2688 45.7229 42.4694C45.7229 44.6723 44.4644 46.6029 42.11 46.6029C41.139 46.6029 40.3121 46.0979 39.8991 45.5554V49.4906H38.4066V38.5031H39.8991V39.4049C40.3121 38.8455 41.139 38.3405 42.11 38.3405" fill="#6A6F73"/>
<path d="M48.9875 39.7067C49.3284 38.8586 50.084 38.3535 50.9465 38.3535C51.2882 38.3535 51.5935 38.4072 51.7192 38.4796V39.9588H51.6657C51.4502 39.8515 51.0907 39.797 50.731 39.797C49.922 39.797 49.2393 40.3378 48.9875 41.2405V46.4198H47.4956V38.4827H48.9875V39.7099" fill="#6A6F73"/>
<path d="M53.8852 35.2881C54.4067 35.2881 54.8377 35.7028 54.8377 36.2266C54.8377 36.7502 54.4067 37.1649 53.8852 37.1649C53.3822 37.1649 52.932 36.7502 52.932 36.2266C52.932 35.7028 53.3822 35.2881 53.8852 35.2881Z" fill="#6A6F73"/>
<path d="M53.1416 46.4312H54.6344V38.4878H53.1416V46.4312Z" fill="#6A6F73"/>
<path d="M59.9612 41.7635C61.0935 42.1238 62.3512 42.593 62.3512 44.1089C62.3512 45.7336 61.0214 46.5639 59.3142 46.5639C58.2711 46.5639 57.2288 46.311 56.6351 45.8417V44.4161H56.7073C57.373 45.0294 58.361 45.3002 59.2956 45.3002C60.1403 45.3002 60.8959 44.9749 60.8959 44.2894C60.8959 43.586 60.2674 43.4232 59.026 43.0085C57.9115 42.6475 56.6716 42.2319 56.6716 40.7348C56.6716 39.2003 57.9293 38.2983 59.5297 38.2983C60.4642 38.2983 61.2911 38.4969 61.956 38.9482V40.3923H61.9026C61.2563 39.8687 60.4998 39.5613 59.5653 39.5613C58.6307 39.5613 58.1091 39.9769 58.1091 40.5364C58.1091 41.1682 58.6841 41.3479 59.9612 41.7635Z" fill="#6A6F73"/>
<path d="M65.1691 41.7004H69.1051C69.0516 40.5276 68.4766 39.6258 67.2537 39.6258C66.1214 39.6258 65.3845 40.474 65.1691 41.7004ZM67.5234 46.6096C65.2047 46.6096 63.623 45.0573 63.623 42.5672C63.623 40.0764 65.097 38.3442 67.2359 38.3442C69.4119 38.3442 70.5434 39.9145 70.5434 42.2419V42.9283H65.1149C65.2768 44.5343 66.3013 45.3102 67.7209 45.3102C68.6029 45.3102 69.2313 45.1118 69.932 44.588H69.9862V45.9062C69.3399 46.4113 68.4945 46.6096 67.5234 46.6096Z" fill="#6A6F73"/>
</g>
</svg>
