<svg width="37" height="37" viewBox="0 0 37 37" fill="none" xmlns="http://www.w3.org/2000/svg">
<g clip-path="url(#clip0_56_1335)">
<path d="M25.9775 0H11.0225C4.94467 0 0 4.94467 0 11.0225V25.9775C0 32.0553 4.94467 37 11.0225 37H25.9775C32.0553 37 37 32.0553 37 25.9775V11.0225C36.9999 4.94467 32.0553 0 25.9775 0ZM33.2778 25.9775C33.2778 30.0093 30.0093 33.2778 25.9775 33.2778H11.0225C6.99069 33.2778 3.7222 30.0093 3.7222 25.9775V11.0225C3.7222 6.99062 6.99069 3.7222 11.0225 3.7222H25.9775C30.0093 3.7222 33.2778 6.99062 33.2778 11.0225V25.9775Z" fill="url(#paint0_linear_56_1335)"/>
<path d="M18.5 8.93066C13.2234 8.93066 8.93048 13.2235 8.93048 18.5001C8.93048 23.7767 13.2234 28.0696 18.5 28.0696C23.7766 28.0696 28.0695 23.7768 28.0695 18.5001C28.0695 13.2235 23.7766 8.93066 18.5 8.93066ZM18.5 24.3475C15.2706 24.3475 12.6527 21.7296 12.6527 18.5002C12.6527 15.2708 15.2707 12.6529 18.5 12.6529C21.7294 12.6529 24.3473 15.2708 24.3473 18.5002C24.3473 21.7295 21.7293 24.3475 18.5 24.3475Z" fill="url(#paint1_linear_56_1335)"/>
<path d="M28.088 11.2956C29.3545 11.2956 30.3811 10.2689 30.3811 9.00253C30.3811 7.73611 29.3545 6.70947 28.088 6.70947C26.8216 6.70947 25.795 7.73611 25.795 9.00253C25.795 10.2689 26.8216 11.2956 28.088 11.2956Z" fill="url(#paint2_linear_56_1335)"/>
</g>
<defs>
<linearGradient id="paint0_linear_56_1335" x1="18.5" y1="36.8923" x2="18.5" y2="0.287385" gradientUnits="userSpaceOnUse">
<stop stop-color="#E09B3D"/>
<stop offset="0.3" stop-color="#C74C4D"/>
<stop offset="0.6" stop-color="#C21975"/>
<stop offset="1" stop-color="#7024C4"/>
</linearGradient>
<linearGradient id="paint1_linear_56_1335" x1="18.5" y1="36.8925" x2="18.5" y2="0.287568" gradientUnits="userSpaceOnUse">
<stop stop-color="#E09B3D"/>
<stop offset="0.3" stop-color="#C74C4D"/>
<stop offset="0.6" stop-color="#C21975"/>
<stop offset="1" stop-color="#7024C4"/>
</linearGradient>
<linearGradient id="paint2_linear_56_1335" x1="28.088" y1="36.8925" x2="28.088" y2="0.287583" gradientUnits="userSpaceOnUse">
<stop stop-color="#E09B3D"/>
<stop offset="0.3" stop-color="#C74C4D"/>
<stop offset="0.6" stop-color="#C21975"/>
<stop offset="1" stop-color="#7024C4"/>
</linearGradient>
<clipPath id="clip0_56_1335">
<rect width="37" height="37" fill="white"/>
</clipPath>
</defs>
</svg>
