<svg width="60" height="59" viewBox="0 0 60 59" fill="none" xmlns="http://www.w3.org/2000/svg">
<g clip-path="url(#clip0_56_953)">
<mask id="mask0_56_953" style="mask-type:luminance" maskUnits="userSpaceOnUse" x="0" y="0" width="60" height="59">
<path d="M59.0208 0H0.020813V59H59.0208V0Z" fill="white"/>
</mask>
<g mask="url(#mask0_56_953)">
<path d="M29.5208 59C45.8132 59 59.0208 45.7924 59.0208 29.5C59.0208 13.2076 45.8132 0 29.5208 0C13.2285 0 0.020813 13.2076 0.020813 29.5C0.020813 45.7924 13.2285 59 29.5208 59Z" fill="#6A6F73"/>
<path d="M7.8547 29.4912C7.8547 15.9785 16.3851 4.45712 28.3572 0.0239258C12.6075 0.638509 0.020813 13.5939 0.020813 29.4993C0.020813 45.4212 12.6321 58.393 28.4063 58.9747C16.4179 54.5497 7.8547 43.0201 7.8547 29.4912Z" fill="#6A6F73"/>
<mask id="mask1_56_953" style="mask-type:luminance" maskUnits="userSpaceOnUse" x="0" y="0" width="29" height="59">
<path d="M7.8547 29.4912C7.8547 15.9785 16.3851 4.45712 28.3572 0.0239258C12.6075 0.638509 0.020813 13.5939 0.020813 29.4993C0.020813 45.4212 12.6321 58.393 28.4063 58.9747C16.4179 54.5497 7.8547 43.0201 7.8547 29.4912Z" fill="url(#paint0_radial_56_953)"/>
</mask>
<g mask="url(#mask1_56_953)">
<path d="M7.8547 29.4912C7.8547 15.9785 16.3851 4.45712 28.3572 0.0239258C12.6075 0.638509 0.020813 13.5939 0.020813 29.4993C0.020813 45.4212 12.6321 58.393 28.4063 58.9747C16.4179 54.5497 7.8547 43.0201 7.8547 29.4912Z" fill="#3E4143"/>
</g>
<path d="M29.021 26.6928C30.9796 21.8662 27.3167 20.5552 24.9321 20.5552H17.0326C17.6881 21.0058 17.5817 21.604 17.4505 21.9728L12.8452 36.6818C12.665 37.2636 11.9766 37.8782 11.6079 37.9683H17.9996C17.6472 37.9028 17.1473 37.4029 17.3276 36.7228L18.9993 31.4045C19.0075 31.4045 26.6939 32.4453 29.021 26.6928ZM22.8097 21.9073C23.6455 21.9073 25.9646 22.0219 24.465 26.406C22.8998 31.0112 19.4254 30.0607 19.4254 30.0607L21.9821 21.9073H22.8097Z" fill="white"/>
<path d="M34.1342 37.9754H38.4363C37.0597 37.5329 35.0274 36.23 34.2161 35.304C34.8717 34.5911 35.683 33.6898 35.8305 31.8624H33.6015C33.6015 31.8624 34.0277 32.1082 34.0277 32.6327C34.0277 33.1161 33.831 33.7881 33.454 34.2552C32.7985 33.2882 32.1019 32.182 31.8561 30.5595C32.733 30.1252 33.9622 29.6499 34.9373 28.7977C35.8632 27.9864 36.0763 27.2161 36.0927 26.7162V26.6507C36.0927 26.1262 35.8878 25.6346 35.5109 25.2658C34.8635 24.6266 33.8474 24.3645 32.7739 24.5611C31.9135 24.725 31.1842 25.1839 30.8155 25.5199C29.5207 26.7408 29.3568 28.7485 29.3568 29.6581C29.3568 29.8794 29.3651 30.0432 29.3732 30.1415C29.2994 30.1744 29.1684 30.2235 29.1684 30.2235C28.2178 30.5758 25.6857 31.2478 24.7843 33.3291C24.6697 33.5914 24.5057 34.165 24.5057 34.8287C24.5057 35.4024 24.6286 36.0415 24.9974 36.6233C25.6365 37.6231 26.7182 38.254 28.4555 38.2212C30.3402 38.1885 32.2003 36.902 32.5281 36.6644C32.8477 36.9675 33.6917 37.7624 34.1342 37.9754ZM34.1342 26.3394C33.913 27.7406 32.0938 29.1582 31.6513 29.3466C31.5693 28.56 31.6103 27.3145 32.2659 26.2983C32.7002 25.6264 33.2819 25.3314 33.749 25.4953C34.126 25.6264 34.1669 25.9706 34.1342 26.3394ZM31.6103 35.7137C31.3563 35.8695 30.3565 36.3775 29.4224 36.4677C28.5538 36.5496 27.1115 36.2136 27.1198 34.4764C27.1198 32.9932 28.734 31.9033 29.6109 31.5264C29.9632 32.9604 30.7581 34.5829 31.6103 35.7137Z" fill="white"/>
<path d="M47.2043 21.9221C49.761 21.3075 51.8671 23.307 52.0555 23.4462L52.7848 21.1273C51.7768 20.824 44.4429 18.3411 39.2558 24.2575C36.0681 27.8958 35.2897 35.3528 39.3296 37.3523C43.6562 39.491 48.4335 37.0245 48.7859 36.8524L50.7608 30.559C50.9738 29.797 51.4573 29.3053 52.3096 28.9857H45.4426C46.4423 29.4036 46.3685 30.1575 46.2948 30.4689L44.32 36.7623C44.0577 36.8114 38.5347 38.1881 41.6239 28.5269C42.3041 26.4536 44.1642 22.6514 47.2043 21.9221Z" fill="white"/>
</g>
</g>
<defs>
<radialGradient id="paint0_radial_56_953" cx="0" cy="0" r="1" gradientUnits="userSpaceOnUse" gradientTransform="translate(24.7671 28.6003) rotate(-88.2324) scale(31.7725 32.3322)">
<stop offset="0.1" stop-color="white"/>
<stop offset="0.35" stop-color="#FDFDFD"/>
<stop offset="0.45" stop-color="#F6F6F6"/>
<stop offset="0.51" stop-color="#EAEAEA"/>
<stop offset="0.57" stop-color="#D9D9D9"/>
<stop offset="0.62" stop-color="#C3C3C3"/>
<stop offset="0.66" stop-color="#A7A7A7"/>
<stop offset="0.7" stop-color="#868686"/>
<stop offset="0.73" stop-color="#606060"/>
<stop offset="0.77" stop-color="#353535"/>
<stop offset="0.8"/>
</radialGradient>
<clipPath id="clip0_56_953">
<rect width="59" height="59" fill="white" transform="translate(0.020813)"/>
</clipPath>
</defs>
</svg>
