<svg width="125" height="43" viewBox="0 0 125 43" fill="none" xmlns="http://www.w3.org/2000/svg">
<g clip-path="url(#clip0_56_918)">
<mask id="mask0_56_918" style="mask-type:luminance" maskUnits="userSpaceOnUse" x="0" y="1" width="125" height="41">
<path d="M124.298 1.21875H0.766541V41.7812H124.298V1.21875Z" fill="white"/>
</mask>
<g mask="url(#mask0_56_918)">
<path d="M124.22 10.8762C125.903 20.4132 99.6501 32.903 65.5759 38.772C31.5057 44.641 2.52205 41.6629 0.841954 32.1218C-0.836787 22.5834 25.4232 10.0977 59.4933 4.23003C93.5647 -1.64172 122.543 1.33643 124.22 10.8762Z" fill="#6A6F73"/>
<path d="M92.1542 25.0331L91.979 15.1162H95.1412V27.6154H90.5949L87.4396 17.3576H87.3717L87.5468 27.6154H84.405V15.1162H89.1481L92.0836 25.0331H92.1542Z" fill="white"/>
<path d="M34.6762 16.2866L32.9269 27.7469H29.4785L31.8466 15.1162H37.5275L39.8848 27.7469H36.45L34.7482 16.2866H34.6762Z" fill="white"/>
<path d="M47.9162 27.7469L45.7802 16.3912H45.7109L45.6308 27.7469H42.4322L42.7144 15.1162H47.9257L49.5027 24.7714H49.5706L51.1488 15.1162H56.3574L56.6342 27.7469H53.4423L53.3583 16.3912H53.2918L51.1569 27.7469H47.9162Z" fill="white"/>
<path d="M24.1005 24.1843C24.2253 24.4904 24.1873 24.8836 24.1289 25.1212C24.0217 25.5412 23.7341 25.9695 22.8845 25.9695C22.0838 25.9695 21.5979 25.5158 21.5979 24.8219V23.5993H18.1726L18.1699 24.5777C18.1699 27.3933 20.4119 28.2429 22.814 28.2429C25.1237 28.2429 27.0264 27.4618 27.3291 25.3575C27.4837 24.2662 27.3684 23.5523 27.3154 23.2825C26.7767 20.6386 21.9291 19.8493 21.5681 18.3704C21.5071 18.1167 21.5247 17.8482 21.5546 17.7047C21.6428 17.302 21.9223 16.8578 22.7216 16.8578C23.4681 16.8578 23.9091 17.3142 23.9091 18.004C23.9091 18.2362 23.9091 18.7837 23.9091 18.7837H27.0943V17.8965C27.0943 15.1453 24.5972 14.7158 22.7881 14.7158C20.5164 14.7158 18.6599 15.458 18.3206 17.5141C18.2283 18.0818 18.2147 18.5878 18.349 19.2212C18.9068 21.8021 23.4437 22.5497 24.1005 24.1843Z" fill="white"/>
<path d="M65.6305 24.1611C65.7568 24.4645 65.7161 24.847 65.659 25.0846C65.5546 25.5032 65.2695 25.9247 64.4255 25.9247C63.6356 25.9247 63.1538 25.471 63.1538 24.7933L63.1511 23.5813H59.761L59.757 24.5463C59.757 27.334 61.9786 28.1755 64.3561 28.1755C66.6415 28.1755 68.5266 27.405 68.8238 25.3194C68.9785 24.2363 68.8685 23.5317 68.813 23.2673C68.2768 20.6475 63.4781 19.8664 63.1212 18.4021C63.0601 18.1499 63.0778 17.8841 63.109 17.7486C63.2 17.3432 63.4741 16.9098 64.2653 16.9098C65.0049 16.9098 65.4364 17.3553 65.4364 18.0397C65.4364 18.2694 65.4364 18.8115 65.4364 18.8115H68.5971V17.9338C68.5971 15.2119 66.1205 14.7852 64.3291 14.7852C62.083 14.7852 60.2415 15.518 59.909 17.5593C59.8167 18.119 59.8072 18.6156 59.9388 19.2463C60.4884 21.8004 64.9804 22.5426 65.6305 24.1611Z" fill="white"/>
<path d="M76.3583 25.8582C77.2445 25.8582 77.5213 25.2516 77.5824 24.9415C77.6082 24.8047 77.615 24.6221 77.6123 24.4583V15.1118H80.8422V24.1725C80.8489 24.4047 80.8259 24.8825 80.815 25.0019C80.5884 27.36 78.7034 28.125 76.3569 28.125C74.0078 28.125 72.1215 27.36 71.8975 25.0019C71.8866 24.8825 71.8636 24.4047 71.8704 24.1725V15.1118H75.0975V24.4583C75.0975 24.6221 75.1029 24.8059 75.1274 24.9415C75.1966 25.2516 75.4653 25.8582 76.3583 25.8582Z" fill="white"/>
<path d="M103.001 25.7253C103.927 25.7253 104.25 25.1469 104.309 24.81C104.332 24.665 104.339 24.4893 104.338 24.3295V22.4962H103.027V20.6521H107.556V24.0424C107.553 24.2785 107.547 24.453 107.509 24.8744C107.296 27.1721 105.281 27.9922 103.017 27.9922C100.75 27.9922 98.737 27.1721 98.5213 24.8744C98.4846 24.453 98.4792 24.2785 98.4751 24.0424L98.4778 18.7235C98.4778 18.4994 98.5063 18.1022 98.5308 17.8914C98.8144 15.5306 100.75 14.771 103.017 14.771C105.282 14.771 107.265 15.5266 107.5 17.8914C107.542 18.294 107.528 18.7235 107.528 18.7235V19.145H104.308V18.4376C104.311 18.439 104.304 18.1369 104.266 17.9571C104.212 17.678 103.966 17.0365 102.993 17.0365C102.062 17.0365 101.789 17.6431 101.721 17.9571C101.682 18.1235 101.667 18.3491 101.667 18.553V24.3295C101.664 24.4893 101.674 24.665 101.7 24.81C101.755 25.1482 102.077 25.7253 103.001 25.7253Z" fill="white"/>
</g>
</g>
<defs>
<clipPath id="clip0_56_918">
<rect width="124.146" height="41.7917" fill="white" transform="translate(0.5625 0.604004)"/>
</clipPath>
</defs>
</svg>
