<svg width="37" height="31" viewBox="0 0 37 31" fill="none" xmlns="http://www.w3.org/2000/svg">
<path d="M33.2121 7.48457C33.2346 7.81075 33.2346 8.13694 33.2346 8.46613C33.2346 18.4966 25.5986 30.0649 11.6359 30.0649V30.0589C7.51123 30.0649 3.47227 28.8834 0 26.6557C0.599756 26.7279 1.20252 26.764 1.80678 26.7655C5.22494 26.7685 8.5454 25.6216 11.2345 23.5096C7.98623 23.448 5.13776 21.3301 4.14268 18.2381C5.28002 18.4574 6.45253 18.4127 7.56986 18.1073C4.02844 17.3918 1.4806 14.2803 1.4806 10.6667V10.5705C2.53632 11.1586 3.71789 11.4844 4.92582 11.5205C1.59033 9.29136 0.562178 4.85406 2.5764 1.38479C4.48214 3.72992 6.8599 5.64792 9.55521 7.01422C12.2505 8.38052 15.2031 9.16456 18.2212 9.31541C17.9203 8.02005 17.9648 6.6684 18.3502 5.39564C18.7356 4.12287 19.4484 2.97358 20.4173 2.06271C23.4747 -0.811306 28.2832 -0.663997 31.1573 2.3919C32.8573 2.0567 34.4867 1.4329 35.9779 0.549044C35.4111 2.30662 34.2252 3.79854 32.6409 4.74734C34.1455 4.56997 35.6156 4.16712 37 3.55233C35.9813 5.07795 34.6985 6.40956 33.2121 7.48457Z" fill="#1D9BF0"/>
</svg>
