<svg width="59" height="59" viewBox="0 0 59 59" fill="none" xmlns="http://www.w3.org/2000/svg">
<g clip-path="url(#clip0_56_909)">
<mask id="mask0_56_909" style="mask-type:luminance" maskUnits="userSpaceOnUse" x="0" y="0" width="59" height="59">
<path d="M59 0H0V59H59V0Z" fill="white"/>
</mask>
<g mask="url(#mask0_56_909)">
<path fill-rule="evenodd" clip-rule="evenodd" d="M29.4887 0.876465C13.6744 0.876465 0.854675 13.6968 0.854675 29.5105C0.854675 45.3245 13.6746 58.1446 29.4887 58.1446C45.3021 58.1446 58.1228 45.3245 58.1228 29.5105C58.1228 13.6971 45.3021 0.876465 29.4887 0.876465ZM29.4887 55.5772C15.0922 55.5772 3.42198 43.9069 3.42198 29.5105C3.42198 15.1147 15.0922 3.44408 29.4887 3.44408C43.8846 3.44408 55.5554 15.1147 55.5554 29.5105C55.5554 43.9069 43.8846 55.5772 29.4887 55.5772Z" fill="#6A6F73"/>
<path fill-rule="evenodd" clip-rule="evenodd" d="M23.782 10.037C25.6361 9.49572 27.5578 9.22185 29.4892 9.22364C31.4681 9.22364 33.3812 9.5071 35.1897 10.0354L29.4892 22.6715L23.782 10.037Z" fill="#6A6F73"/>
<path fill-rule="evenodd" clip-rule="evenodd" d="M40.3791 12.3901C42.5156 13.753 44.3796 15.5018 45.876 17.5471L36.5196 38.252L32.909 30.2239H26.0682L22.4579 38.2517L13.115 17.5278C14.6084 15.4907 16.4673 13.7486 18.5971 12.3904L26.0682 28.9648H32.9322L40.3791 12.3901ZM9.88558 24.26C9.42884 25.9729 9.19823 27.7381 9.19959 29.511C9.19959 37.4619 13.7725 44.3442 20.4319 47.6719L9.88558 24.26Z" fill="#6A6F73"/>
<path fill-rule="evenodd" clip-rule="evenodd" d="M23.8763 49.0144C25.7013 49.5379 27.5906 49.8025 29.4891 49.8008C31.4341 49.8008 33.3149 49.5268 35.0951 49.0165L29.4891 36.5662L23.8763 49.0144ZM38.545 47.6727C45.2046 44.345 49.7775 37.4629 49.7775 29.5118C49.7775 27.7118 49.5429 25.9668 49.1038 24.3052L38.545 47.6727Z" fill="#6A6F73"/>
</g>
</g>
<defs>
<clipPath id="clip0_56_909">
<rect width="59" height="59" fill="white"/>
</clipPath>
</defs>
</svg>
